<?xml version="1.0" standalone="no"?>
<!DOCTYPE svg PUBLIC "-//W3C//DTD SVG 20010904//EN"
 "http://www.w3.org/TR/2001/REC-SVG-20010904/DTD/svg10.dtd">
<svg version="1.0" xmlns="http://www.w3.org/2000/svg"
 width="300.000000pt" height="300.000000pt" viewBox="0 0 300.000000 300.000000"
 preserveAspectRatio="xMidYMid meet">
<metadata>
Created by potrace 1.16, written by Peter Selinger 2001-2019
</metadata>
<g transform="translate(0.000000,300.000000) scale(0.100000,-0.100000)"
fill="#000000" stroke="none">
<path d="M1621 2591 c-23 -32 -31 -95 -9 -73 28 28 27 9 -1 -32 -30 -43 -30
-44 -10 -62 16 -15 17 -20 6 -31 -10 -10 -29 -11 -97 -2 -105 14 -577 4 -597
-13 -23 -19 -15 -47 15 -53 115 -24 142 -49 166 -154 13 -56 16 -129 15 -368
-1 -258 -11 -519 -18 -443 l-2 25 -10 -24 c-7 -18 -6 -26 7 -36 15 -10 15 -23
6 -123 -6 -61 -18 -128 -27 -148 -19 -46 -20 -44 13 -45 19 -1 21 -3 7 -6 -11
-2 -30 -6 -43 -9 -27 -6 -112 -81 -112 -99 0 -9 29 -13 103 -16 352 -10 543 6
487 41 -10 6 -11 10 -3 10 7 0 10 6 7 14 -6 16 -36 29 -103 46 -84 22 -112 54
-126 145 -11 73 -7 377 6 390 20 20 137 -55 239 -155 94 -93 225 -250 268
-321 24 -40 29 -89 10 -89 -33 0 -88 -22 -88 -35 0 -27 35 -32 237 -37 200 -5
202 -5 206 16 4 19 4 19 6 -3 1 -22 4 -23 42 -18 51 7 74 27 64 56 -6 20 -21
25 -77 24 -10 0 -18 4 -18 8 0 4 -13 10 -30 14 -47 10 -169 96 -236 166 -34
35 -95 109 -137 165 -73 96 -147 173 -232 241 -33 27 -37 34 -25 43 8 5 27 10
41 10 44 0 174 37 230 66 73 37 163 125 197 193 23 49 27 68 27 146 -1 77 -5
97 -27 140 -35 67 -100 128 -170 160 -31 14 -62 32 -68 40 -7 8 -21 15 -32 15
-15 0 -18 6 -16 35 1 19 7 35 13 35 5 0 3 4 -5 10 -12 8 -12 10 2 15 10 4 22
4 28 0 13 -8 -8 31 -27 53 -7 7 -13 19 -14 25 -3 48 -11 61 -46 71 -16 5 -26
0 -42 -23z m-141 -251 c92 -15 91 -14 77 -44 -7 -14 -19 -27 -26 -28 -21 -4
-22 -86 -3 -119 12 -21 13 -35 5 -68 -9 -33 -8 -41 3 -41 7 0 17 12 20 26 6
22 11 25 36 20 24 -5 32 -1 49 27 21 32 21 32 15 5 -4 -17 -2 -28 4 -28 5 0
10 -7 10 -16 0 -14 3 -14 15 -4 8 7 15 20 15 29 0 9 4 21 8 27 5 5 14 29 21
52 12 42 13 43 31 27 10 -9 29 -40 41 -68 19 -42 23 -69 23 -147 0 -85 -3
-101 -28 -150 -15 -30 -39 -69 -52 -86 -13 -17 -21 -34 -18 -36 2 -3 -17 -13
-43 -22 -27 -9 -74 -31 -107 -48 -56 -29 -62 -30 -150 -26 -50 3 -102 11 -115
17 l-23 13 7 341 c4 188 9 345 11 349 7 11 97 10 174 -2z"/>
</g>
</svg>
